<svg width="842" height="474" viewBox="0 0 842 474" fill="none" xmlns="http://www.w3.org/2000/svg">
<g clip-path="url(#clip0_1_10)">
<rect width="842" height="474" fill="#043C74"/>
<path d="M271.546 36C271.787 352.614 13.6228 223.03 13.8428 513.261" stroke="white" stroke-width="0.75" stroke-miterlimit="10"/>
<path d="M282.29 53.1636C282.53 369.778 24.3664 240.194 24.5864 530.425" stroke="white" stroke-width="0.75" stroke-miterlimit="10"/>
<path d="M293.646 71.3025C293.885 387.917 35.7213 258.333 35.9423 548.564" stroke="white" stroke-width="0.75" stroke-miterlimit="10"/>
<path d="M304.39 88.4662C304.63 405.081 46.4659 275.497 46.686 565.728" stroke="white" stroke-width="0.75" stroke-miterlimit="10"/>
<path d="M314.804 105.103C315.044 421.717 56.8803 292.133 57.1003 582.364" stroke="white" stroke-width="0.75" stroke-miterlimit="10"/>
<path d="M325.548 122.267C325.788 438.881 67.6239 309.297 67.8439 599.528" stroke="white" stroke-width="0.75" stroke-miterlimit="10"/>
<path d="M336.903 140.406C337.143 457.02 78.9789 327.438 79.1999 617.667" stroke="white" stroke-width="0.75" stroke-miterlimit="10"/>
<path d="M347.647 157.569C347.887 474.184 89.7225 344.6 89.9435 634.831" stroke="white" stroke-width="0.75" stroke-miterlimit="10"/>
<path d="M358.299 174.585C358.539 491.2 100.375 361.616 100.595 651.847" stroke="white" stroke-width="0.75" stroke-miterlimit="10"/>
<path d="M369.043 191.748C369.283 508.363 111.119 378.779 111.339 669.01" stroke="white" stroke-width="0.75" stroke-miterlimit="10"/>
<path d="M380.398 209.888C380.638 526.503 122.474 396.919 122.694 687.15" stroke="white" stroke-width="0.75" stroke-miterlimit="10"/>
<path d="M391.142 227.051C391.381 543.665 133.217 414.081 133.438 704.312" stroke="white" stroke-width="0.75" stroke-miterlimit="10"/>
<path d="M401.557 243.689C401.797 560.303 143.632 430.719 143.853 720.95" stroke="white" stroke-width="0.75" stroke-miterlimit="10"/>
<path d="M412.3 260.851C412.54 577.466 154.376 447.881 154.596 738.112" stroke="white" stroke-width="0.75" stroke-miterlimit="10"/>
<path d="M423.655 278.991C423.895 595.606 165.732 466.022 165.952 756.253" stroke="white" stroke-width="0.75" stroke-miterlimit="10"/>
<path d="M434.399 296.154C434.639 612.768 176.475 483.184 176.695 773.415" stroke="white" stroke-width="0.75" stroke-miterlimit="10"/>
<path d="M447.22 316.634C447.46 633.249 189.296 503.665 189.516 793.896" stroke="white" stroke-width="0.75" stroke-miterlimit="10"/>
<path d="M457.963 333.797C458.203 650.412 200.04 520.83 200.26 811.059" stroke="white" stroke-width="0.75" stroke-miterlimit="10"/>
<path d="M469.318 351.937C469.558 668.551 211.395 538.967 211.615 829.198" stroke="white" stroke-width="0.75" stroke-miterlimit="10"/>
<path d="M480.063 369.101C480.303 685.715 222.138 556.131 222.359 846.362" stroke="white" stroke-width="0.75" stroke-miterlimit="10"/>
<path d="M490.477 385.737C490.717 702.352 232.553 572.768 232.774 862.999" stroke="white" stroke-width="0.75" stroke-miterlimit="10"/>
<path d="M501.221 402.901C501.461 719.515 243.297 589.931 243.517 880.16" stroke="white" stroke-width="0.75" stroke-miterlimit="10"/>
<path d="M512.576 421.04C512.816 737.654 254.652 608.07 254.872 898.301" stroke="white" stroke-width="0.75" stroke-miterlimit="10"/>
<path d="M523.321 438.203C523.56 754.818 265.396 625.234 265.617 915.465" stroke="white" stroke-width="0.75" stroke-miterlimit="10"/>
<path d="M533.972 455.219C534.212 771.833 276.048 642.252 276.269 932.48" stroke="white" stroke-width="0.75" stroke-miterlimit="10"/>
<path d="M544.716 472.382C544.956 788.997 286.792 659.413 287.012 949.644" stroke="white" stroke-width="0.75" stroke-miterlimit="10"/>
<path d="M1076.15 784.624H-609V-574.21H1076.15V784.624Z" stroke="white" stroke-miterlimit="10"/>
</g>
<defs>
<clipPath id="clip0_1_10">
<rect width="842" height="474" fill="white"/>
</clipPath>
</defs>
</svg>
