<svg width="842" height="596" viewBox="0 0 842 596" fill="none" xmlns="http://www.w3.org/2000/svg">
<g clip-path="url(#clip0_1_10)">
<rect width="841.89" height="595.28" fill="#927948"/>
<path d="M156.057 299.103C156.297 437.805 -101.833 381.037 -101.613 508.181" stroke="#D1AE67" stroke-width="0.75" stroke-miterlimit="10"/>
<path d="M166.799 306.622C167.039 445.324 -91.091 388.556 -90.871 515.7" stroke="#D1AE67" stroke-width="0.75" stroke-miterlimit="10"/>
<path d="M178.154 314.568C178.393 453.27 -79.7375 396.502 -79.5165 523.646" stroke="#D1AE67" stroke-width="0.75" stroke-miterlimit="10"/>
<path d="M188.896 322.087C189.136 460.789 -68.9943 404.021 -68.7743 531.165" stroke="#D1AE67" stroke-width="0.75" stroke-miterlimit="10"/>
<path d="M199.309 329.375C199.549 468.077 -58.5813 411.309 -58.3613 538.453" stroke="#D1AE67" stroke-width="0.75" stroke-miterlimit="10"/>
<path d="M210.051 336.894C210.291 475.596 -47.8391 418.828 -47.6191 545.972" stroke="#D1AE67" stroke-width="0.75" stroke-miterlimit="10"/>
<path d="M221.404 344.84C221.644 483.542 -36.4856 426.775 -36.2646 553.918" stroke="#D1AE67" stroke-width="0.75" stroke-miterlimit="10"/>
<path d="M232.148 352.359C232.388 491.061 -25.7434 434.293 -25.5224 561.437" stroke="#D1AE67" stroke-width="0.75" stroke-miterlimit="10"/>
<path d="M242.798 359.814C243.038 498.516 -15.092 441.748 -14.872 568.892" stroke="#D1AE67" stroke-width="0.75" stroke-miterlimit="10"/>
<path d="M253.54 367.333C253.78 506.035 -4.34977 449.267 -4.12977 576.411" stroke="#D1AE67" stroke-width="0.75" stroke-miterlimit="10"/>
<path d="M264.894 375.279C265.134 513.981 7.00371 457.213 7.22371 584.357" stroke="#D1AE67" stroke-width="0.75" stroke-miterlimit="10"/>
<path d="M275.637 382.798C275.876 521.5 17.7459 464.732 17.9669 591.876" stroke="#D1AE67" stroke-width="0.75" stroke-miterlimit="10"/>
<path d="M286.05 390.087C286.29 528.789 28.159 472.021 28.38 599.165" stroke="#D1AE67" stroke-width="0.75" stroke-miterlimit="10"/>
<path d="M296.792 397.605C297.032 536.307 38.9021 479.539 39.1221 606.683" stroke="#D1AE67" stroke-width="0.75" stroke-miterlimit="10"/>
<path d="M308.146 405.552C308.386 544.254 50.2557 487.486 50.4757 614.63" stroke="#D1AE67" stroke-width="0.75" stroke-miterlimit="10"/>
<path d="M318.888 413.07C319.128 551.772 60.9978 495.004 61.2178 622.148" stroke="#D1AE67" stroke-width="0.75" stroke-miterlimit="10"/>
<path d="M331.707 422.043C331.947 560.745 73.8172 503.977 74.0372 631.121" stroke="#D1AE67" stroke-width="0.75" stroke-miterlimit="10"/>
<path d="M342.449 429.561C342.689 568.263 84.5594 511.496 84.7794 638.639" stroke="#D1AE67" stroke-width="0.75" stroke-miterlimit="10"/>
<path d="M353.803 437.508C354.043 576.21 95.9129 519.442 96.1329 646.586" stroke="#D1AE67" stroke-width="0.75" stroke-miterlimit="10"/>
<path d="M364.546 445.027C364.786 583.729 106.655 526.961 106.876 654.105" stroke="#D1AE67" stroke-width="0.75" stroke-miterlimit="10"/>
<path d="M374.959 452.315C375.199 591.017 117.068 534.249 117.289 661.393" stroke="#D1AE67" stroke-width="0.75" stroke-miterlimit="10"/>
<path d="M385.701 459.834C385.941 598.536 127.811 541.768 128.031 668.911" stroke="#D1AE67" stroke-width="0.75" stroke-miterlimit="10"/>
<path d="M397.055 467.78C397.295 606.482 139.165 549.714 139.385 676.858" stroke="#D1AE67" stroke-width="0.75" stroke-miterlimit="10"/>
<path d="M407.798 475.299C408.037 614.001 149.907 557.233 150.128 684.377" stroke="#D1AE67" stroke-width="0.75" stroke-miterlimit="10"/>
<path d="M418.448 482.753C418.688 621.455 160.557 564.688 160.778 691.831" stroke="#D1AE67" stroke-width="0.75" stroke-miterlimit="10"/>
<path d="M429.191 490.273C429.431 628.975 171.301 572.207 171.521 699.351" stroke="#D1AE67" stroke-width="0.75" stroke-miterlimit="10"/>
<path d="M440.544 498.219C440.784 636.921 182.654 580.153 182.874 707.297" stroke="#D1AE67" stroke-width="0.75" stroke-miterlimit="10"/>
<path d="M451.287 505.738C451.526 644.44 193.396 587.672 193.617 714.816" stroke="#D1AE67" stroke-width="0.75" stroke-miterlimit="10"/>
<path d="M461.7 513.026C461.94 651.728 203.809 594.96 204.03 722.104" stroke="#D1AE67" stroke-width="0.75" stroke-miterlimit="10"/>
<path d="M472.443 520.545C472.683 659.247 214.553 602.479 214.773 729.623" stroke="#D1AE67" stroke-width="0.75" stroke-miterlimit="10"/>
<path d="M483.796 528.492C484.036 667.194 225.906 610.426 226.126 737.57" stroke="#D1AE67" stroke-width="0.75" stroke-miterlimit="10"/>
<path d="M494.538 536.01C494.778 674.712 236.648 617.944 236.868 745.088" stroke="#D1AE67" stroke-width="0.75" stroke-miterlimit="10"/>
<path d="M506.279 544.228C506.519 682.93 248.389 626.162 248.609 753.305" stroke="#D1AE67" stroke-width="0.75" stroke-miterlimit="10"/>
<path d="M517.021 551.746C517.261 690.448 259.131 633.68 259.351 760.824" stroke="#D1AE67" stroke-width="0.75" stroke-miterlimit="10"/>
<path d="M528.375 559.693C528.615 698.395 270.484 641.627 270.705 768.771" stroke="#D1AE67" stroke-width="0.75" stroke-miterlimit="10"/>
<path d="M539.117 567.212C539.357 705.914 281.227 649.146 281.447 776.29" stroke="#D1AE67" stroke-width="0.75" stroke-miterlimit="10"/>
<path d="M549.53 574.5C549.77 713.202 291.64 656.434 291.86 783.578" stroke="#D1AE67" stroke-width="0.75" stroke-miterlimit="10"/>
<path d="M7.23364 583.933C7.47264 722.635 -250.657 665.867 -250.436 793.011" stroke="#D1AE67" stroke-width="0.75" stroke-miterlimit="10"/>
<path d="M17.9757 591.451C18.2157 730.153 -239.914 673.385 -239.694 800.529" stroke="#D1AE67" stroke-width="0.75" stroke-miterlimit="10"/>
<path d="M560.836 582.897C561.076 721.599 302.946 664.831 303.166 791.975" stroke="#D1AE67" stroke-width="0.75" stroke-miterlimit="10"/>
<path d="M572.19 590.843C572.43 729.545 314.3 672.777 314.52 799.921" stroke="#D1AE67" stroke-width="0.75" stroke-miterlimit="10"/>
<path d="M5.34105 249.637C5.56605 379.318 -235.775 326.242 -235.569 445.116" stroke="#D1AE67" stroke-width="0.5" stroke-miterlimit="10"/>
<path d="M15.3849 256.667C15.6099 386.348 -225.731 333.272 -225.526 452.146" stroke="#D1AE67" stroke-width="0.5" stroke-miterlimit="10"/>
<path d="M26.0002 264.097C26.2252 393.778 -215.116 340.702 -214.911 459.576" stroke="#D1AE67" stroke-width="0.5" stroke-miterlimit="10"/>
<path d="M36.0441 271.127C36.2691 400.808 -205.073 347.732 -204.867 466.606" stroke="#D1AE67" stroke-width="0.5" stroke-miterlimit="10"/>
<path d="M45.7795 277.941C46.0045 407.622 -195.337 354.546 -195.131 473.42" stroke="#D1AE67" stroke-width="0.5" stroke-miterlimit="10"/>
<path d="M55.8235 284.971C56.0485 414.651 -185.293 361.576 -185.087 480.45" stroke="#D1AE67" stroke-width="0.5" stroke-miterlimit="10"/>
<path d="M66.4386 292.4C66.6636 422.081 -174.677 369.005 -174.471 487.879" stroke="#D1AE67" stroke-width="0.5" stroke-miterlimit="10"/>
<path d="M76.4827 299.43C76.7077 429.111 -164.633 376.035 -164.428 494.909" stroke="#D1AE67" stroke-width="0.5" stroke-miterlimit="10"/>
<path d="M86.4407 306.4C86.6657 436.08 -154.676 383.005 -154.47 501.879" stroke="#D1AE67" stroke-width="0.5" stroke-miterlimit="10"/>
<path d="M96.4846 313.429C96.7096 443.11 -144.632 390.034 -144.426 508.908" stroke="#D1AE67" stroke-width="0.5" stroke-miterlimit="10"/>
<path d="M107.1 320.859C107.325 450.539 -134.017 397.464 -133.811 516.338" stroke="#D1AE67" stroke-width="0.5" stroke-miterlimit="10"/>
<path d="M117.143 327.889C117.368 457.569 -123.973 404.494 -123.767 523.368" stroke="#D1AE67" stroke-width="0.5" stroke-miterlimit="10"/>
<path d="M126.879 334.703C127.104 464.384 -114.237 411.308 -114.032 530.182" stroke="#D1AE67" stroke-width="0.5" stroke-miterlimit="10"/>
<path d="M136.923 341.733C137.148 471.414 -104.194 418.338 -103.988 537.212" stroke="#D1AE67" stroke-width="0.5" stroke-miterlimit="10"/>
<path d="M147.538 349.163C147.763 478.844 -93.5788 425.768 -93.3728 544.642" stroke="#D1AE67" stroke-width="0.5" stroke-miterlimit="10"/>
<path d="M157.582 356.192C157.807 485.873 -83.5348 432.797 -83.3288 551.671" stroke="#D1AE67" stroke-width="0.5" stroke-miterlimit="10"/>
<path d="M168.558 363.875C168.783 493.556 -72.5582 440.48 -72.3522 559.354" stroke="#D1AE67" stroke-width="0.5" stroke-miterlimit="10"/>
<path d="M178.602 370.905C178.827 500.586 -62.5143 447.51 -62.3083 566.384" stroke="#D1AE67" stroke-width="0.5" stroke-miterlimit="10"/>
<path d="M189.217 378.335C189.442 508.016 -51.899 454.94 -51.693 573.814" stroke="#D1AE67" stroke-width="0.5" stroke-miterlimit="10"/>
<path d="M199.261 385.364C199.486 515.045 -41.8551 461.969 -41.6501 580.843" stroke="#D1AE67" stroke-width="0.5" stroke-miterlimit="10"/>
<path d="M208.997 392.179C209.222 521.859 -32.1197 468.784 -31.9137 587.658" stroke="#D1AE67" stroke-width="0.5" stroke-miterlimit="10"/>
<path d="M9.44067 -110.363C9.66467 19.3182 -231.676 -33.7578 -231.47 85.1162" stroke="#D1AE67" stroke-width="0.5" stroke-miterlimit="10"/>
<path d="M20.0558 -102.933C20.2798 26.748 -221.061 -26.328 -220.855 92.546" stroke="#D1AE67" stroke-width="0.5" stroke-miterlimit="10"/>
<path d="M30.0989 -95.9033C30.3239 33.7777 -211.017 -19.2983 -210.811 99.5757" stroke="#D1AE67" stroke-width="0.5" stroke-miterlimit="10"/>
<path d="M41.0754 -88.2206C41.3004 41.4604 -200.041 -11.6156 -199.835 107.258" stroke="#D1AE67" stroke-width="0.5" stroke-miterlimit="10"/>
<path d="M51.1193 -81.1909C51.3443 48.4891 -189.997 -4.58585 -189.792 114.288" stroke="#D1AE67" stroke-width="0.5" stroke-miterlimit="10"/>
<path d="M61.7346 -73.7612C61.9596 55.9198 -179.381 2.84383 -179.176 121.718" stroke="#D1AE67" stroke-width="0.5" stroke-miterlimit="10"/>
<path d="M71.7786 -66.7314C72.0036 62.9496 -169.338 9.87362 -169.132 128.748" stroke="#D1AE67" stroke-width="0.5" stroke-miterlimit="10"/>
<path d="M81.5138 -59.9174C81.7388 69.7636 -159.602 16.6876 -159.396 135.562" stroke="#D1AE67" stroke-width="0.5" stroke-miterlimit="10"/>
<path d="M931.722 -193.814C931.947 -64.1344 690.606 -117.209 690.812 1.66461" stroke="#D1AE67" stroke-width="0.5" stroke-miterlimit="10"/>
<path d="M414.086 -192.024C414.311 -62.3434 172.97 -115.419 173.175 3.45464" stroke="#D1AE67" stroke-width="0.5" stroke-miterlimit="10"/>
<path d="M424.701 -184.595C424.926 -54.9137 183.585 -107.99 183.791 10.8843" stroke="#D1AE67" stroke-width="0.5" stroke-miterlimit="10"/>
<path d="M434.745 -177.565C434.97 -47.8839 193.629 -100.96 193.834 17.9141" stroke="#D1AE67" stroke-width="0.5" stroke-miterlimit="10"/>
<path d="M444.481 -170.75C444.706 -41.0705 203.365 -94.1465 203.571 24.7285" stroke="#D1AE67" stroke-width="0.5" stroke-miterlimit="10"/>
<path d="M454.525 -163.721C454.75 -34.0402 213.409 -87.1162 213.615 31.7578" stroke="#D1AE67" stroke-width="0.5" stroke-miterlimit="10"/>
<path d="M465.14 -156.291C465.365 -26.611 224.024 -79.686 224.23 39.188" stroke="#D1AE67" stroke-width="0.5" stroke-miterlimit="10"/>
<path d="M475.184 -149.262C475.409 -19.5807 234.068 -72.6567 234.273 46.2173" stroke="#D1AE67" stroke-width="0.5" stroke-miterlimit="10"/>
<path d="M487.169 -140.873C487.394 -11.192 246.052 -64.268 246.258 54.606" stroke="#D1AE67" stroke-width="0.5" stroke-miterlimit="10"/>
<path d="M497.212 -133.843C497.437 -4.1622 256.096 -57.2382 256.302 61.6358" stroke="#D1AE67" stroke-width="0.5" stroke-miterlimit="10"/>
<path d="M507.827 -126.413C508.052 3.26755 266.711 -49.8084 266.917 69.0656" stroke="#D1AE67" stroke-width="0.5" stroke-miterlimit="10"/>
<path d="M517.871 -119.384C518.096 10.2972 276.755 -42.7788 276.961 76.0952" stroke="#D1AE67" stroke-width="0.5" stroke-miterlimit="10"/>
<path d="M527.608 -112.569C527.833 17.1107 286.492 -35.9643 286.697 82.9097" stroke="#D1AE67" stroke-width="0.5" stroke-miterlimit="10"/>
<path d="M537.652 -105.539C537.876 24.1405 296.535 -28.9345 296.741 89.9395" stroke="#D1AE67" stroke-width="0.5" stroke-miterlimit="10"/>
<path d="M548.267 -98.1097C548.492 31.5713 307.15 -21.5047 307.356 97.3693" stroke="#D1AE67" stroke-width="0.5" stroke-miterlimit="10"/>
<path d="M558.31 -91.08C558.535 38.6 317.194 -14.475 317.4 104.399" stroke="#D1AE67" stroke-width="0.5" stroke-miterlimit="10"/>
<path d="M568.268 -84.1108C568.493 45.5702 327.152 -7.50578 327.358 111.368" stroke="#D1AE67" stroke-width="0.5" stroke-miterlimit="10"/>
<path d="M578.312 -77.081C578.537 52.6 337.196 -0.47599 337.402 118.398" stroke="#D1AE67" stroke-width="0.5" stroke-miterlimit="10"/>
<path d="M588.927 -69.6508C589.152 60.0292 347.811 6.95325 348.017 125.828" stroke="#D1AE67" stroke-width="0.5" stroke-miterlimit="10"/>
<path d="M598.971 -62.6216C599.196 67.0594 357.855 13.9834 358.06 132.857" stroke="#D1AE67" stroke-width="0.5" stroke-miterlimit="10"/>
<path d="M608.706 -55.8071C608.931 73.8739 367.59 20.7979 367.796 139.672" stroke="#D1AE67" stroke-width="0.5" stroke-miterlimit="10"/>
<path d="M618.75 -48.7773C618.975 80.9037 377.634 27.8277 377.84 146.702" stroke="#D1AE67" stroke-width="0.5" stroke-miterlimit="10"/>
<path d="M629.365 -41.3476C629.59 88.3334 388.249 35.2574 388.455 154.131" stroke="#D1AE67" stroke-width="0.5" stroke-miterlimit="10"/>
<path d="M639.409 -34.3177C639.634 95.3633 398.293 42.2873 398.499 161.161" stroke="#D1AE67" stroke-width="0.5" stroke-miterlimit="10"/>
<path d="M650.386 -26.6352C650.611 103.046 409.27 49.9698 409.475 168.844" stroke="#D1AE67" stroke-width="0.5" stroke-miterlimit="10"/>
<path d="M660.43 -19.6053C660.655 110.075 419.313 56.9997 419.519 175.874" stroke="#D1AE67" stroke-width="0.5" stroke-miterlimit="10"/>
<path d="M671.045 -12.1757C671.27 117.505 429.929 64.4293 430.134 183.303" stroke="#D1AE67" stroke-width="0.5" stroke-miterlimit="10"/>
<path d="M681.088 -5.146C681.313 124.534 439.972 71.459 440.178 190.333" stroke="#D1AE67" stroke-width="0.5" stroke-miterlimit="10"/>
<path d="M690.824 1.66803C691.049 131.349 449.708 78.273 449.914 197.147" stroke="#D1AE67" stroke-width="0.5" stroke-miterlimit="10"/>
<path d="M92.0842 -53.705C92.3092 75.976 -149.032 22.9 -148.826 141.774" stroke="#D1AE67" stroke-width="0.5" stroke-miterlimit="10"/>
<path d="M102.7 -46.2748C102.924 83.4052 -138.417 30.3302 -138.211 149.204" stroke="#D1AE67" stroke-width="0.5" stroke-miterlimit="10"/>
<path d="M112.743 -39.2455C112.968 90.4355 -128.373 37.3595 -128.167 156.233" stroke="#D1AE67" stroke-width="0.5" stroke-miterlimit="10"/>
<path d="M122.48 -32.4311C122.705 97.2499 -118.637 44.1739 -118.431 163.048" stroke="#D1AE67" stroke-width="0.5" stroke-miterlimit="10"/>
<path d="M132.524 -25.4012C132.748 104.28 -108.593 51.2038 -108.387 170.078" stroke="#D1AE67" stroke-width="0.5" stroke-miterlimit="10"/>
<path d="M143.139 -17.9716C143.364 111.709 -97.9781 58.6334 -97.7721 177.507" stroke="#D1AE67" stroke-width="0.5" stroke-miterlimit="10"/>
<path d="M153.182 -10.9419C153.407 118.739 -87.9342 65.6631 -87.7282 184.537" stroke="#D1AE67" stroke-width="0.5" stroke-miterlimit="10"/>
<path d="M163.14 -3.97205C163.365 125.709 -77.9762 72.633 -77.7702 191.507" stroke="#D1AE67" stroke-width="0.5" stroke-miterlimit="10"/>
<path d="M173.184 3.05762C173.409 132.738 -67.9323 79.6626 -67.7273 198.537" stroke="#D1AE67" stroke-width="0.5" stroke-miterlimit="10"/>
<path d="M183.799 10.4873C184.024 140.168 -57.317 87.0923 -57.112 205.966" stroke="#D1AE67" stroke-width="0.5" stroke-miterlimit="10"/>
<path d="M193.843 17.5172C194.068 147.198 -47.273 94.1222 -47.068 212.996" stroke="#D1AE67" stroke-width="0.5" stroke-miterlimit="10"/>
<path d="M203.578 24.3311C203.803 154.012 -37.5377 100.936 -37.3317 219.81" stroke="#D1AE67" stroke-width="0.5" stroke-miterlimit="10"/>
<path d="M213.622 31.3609C213.847 161.042 -27.4938 107.966 -27.2878 226.84" stroke="#D1AE67" stroke-width="0.5" stroke-miterlimit="10"/>
<path d="M224.238 38.791C224.463 168.471 -16.8785 115.395 -16.6725 234.27" stroke="#D1AE67" stroke-width="0.5" stroke-miterlimit="10"/>
<path d="M234.281 45.8203C234.506 175.501 -6.83457 122.425 -6.62957 241.299" stroke="#D1AE67" stroke-width="0.5" stroke-miterlimit="10"/>
<path d="M246.267 54.209C246.492 183.89 5.15084 130.814 5.35584 249.688" stroke="#D1AE67" stroke-width="0.5" stroke-miterlimit="10"/>
<path d="M256.311 61.2388C256.535 190.92 15.1937 137.844 15.3997 256.718" stroke="#D1AE67" stroke-width="0.5" stroke-miterlimit="10"/>
<path d="M266.926 68.6685C267.151 198.35 25.8089 145.274 26.0149 264.148" stroke="#D1AE67" stroke-width="0.5" stroke-miterlimit="10"/>
<path d="M276.969 75.6983C277.194 205.379 35.8529 152.303 36.0589 271.177" stroke="#D1AE67" stroke-width="0.5" stroke-miterlimit="10"/>
<path d="M286.705 82.5128C286.93 212.193 45.5892 159.118 45.7952 277.992" stroke="#D1AE67" stroke-width="0.5" stroke-miterlimit="10"/>
<path d="M296.749 89.542C296.974 219.223 55.6332 166.147 55.8382 285.021" stroke="#D1AE67" stroke-width="0.5" stroke-miterlimit="10"/>
<path d="M307.364 96.9722C307.589 226.652 66.2484 173.577 66.4534 292.451" stroke="#D1AE67" stroke-width="0.5" stroke-miterlimit="10"/>
<path d="M317.408 104.002C317.632 233.682 76.2914 180.607 76.4974 299.481" stroke="#D1AE67" stroke-width="0.5" stroke-miterlimit="10"/>
<path d="M327.365 110.971C327.59 240.652 86.2495 187.576 86.4555 306.45" stroke="#D1AE67" stroke-width="0.5" stroke-miterlimit="10"/>
<path d="M337.409 118.001C337.634 247.682 96.2933 194.606 96.4993 313.48" stroke="#D1AE67" stroke-width="0.5" stroke-miterlimit="10"/>
<path d="M348.025 125.431C348.25 255.112 106.909 202.036 107.115 320.91" stroke="#D1AE67" stroke-width="0.5" stroke-miterlimit="10"/>
<path d="M358.069 132.461C358.294 262.142 116.953 209.066 117.159 327.94" stroke="#D1AE67" stroke-width="0.5" stroke-miterlimit="10"/>
<path d="M367.805 139.275C368.029 268.956 126.688 215.88 126.894 334.754" stroke="#D1AE67" stroke-width="0.5" stroke-miterlimit="10"/>
<path d="M377.848 146.305C378.073 275.986 136.732 222.91 136.938 341.784" stroke="#D1AE67" stroke-width="0.5" stroke-miterlimit="10"/>
<path d="M388.463 153.734C388.688 283.415 147.347 230.339 147.553 349.213" stroke="#D1AE67" stroke-width="0.5" stroke-miterlimit="10"/>
<path d="M398.507 160.764C398.732 290.445 157.391 237.369 157.597 356.243" stroke="#D1AE67" stroke-width="0.5" stroke-miterlimit="10"/>
<path d="M409.484 168.447C409.709 298.127 168.368 245.052 168.574 363.926" stroke="#D1AE67" stroke-width="0.5" stroke-miterlimit="10"/>
<path d="M419.528 175.477C419.753 305.157 178.412 252.082 178.617 370.956" stroke="#D1AE67" stroke-width="0.5" stroke-miterlimit="10"/>
<path d="M430.143 182.906C430.368 312.587 189.027 259.511 189.232 378.385" stroke="#D1AE67" stroke-width="0.5" stroke-miterlimit="10"/>
<path d="M440.187 189.936C440.412 319.616 199.071 266.541 199.276 385.415" stroke="#D1AE67" stroke-width="0.5" stroke-miterlimit="10"/>
<path d="M449.922 196.75C450.147 326.431 208.806 273.355 209.012 392.229" stroke="#D1AE67" stroke-width="0.5" stroke-miterlimit="10"/>
<path d="M216.94 401.48C217.165 531.161 -24.1764 478.085 -23.9714 596.959" stroke="#D1AE67" stroke-width="0.5" stroke-miterlimit="10"/>
<path d="M226.984 408.51C227.209 538.191 -14.1334 485.115 -13.9274 603.989" stroke="#D1AE67" stroke-width="0.5" stroke-miterlimit="10"/>
<path d="M237.599 415.94C237.824 545.621 -3.51815 492.545 -3.31215 611.419" stroke="#D1AE67" stroke-width="0.5" stroke-miterlimit="10"/>
<path d="M247.643 422.969C247.867 552.65 6.52576 499.574 6.73176 618.448" stroke="#D1AE67" stroke-width="0.5" stroke-miterlimit="10"/>
<path d="M257.378 429.784C257.603 559.465 16.2621 506.389 16.4681 625.263" stroke="#D1AE67" stroke-width="0.5" stroke-miterlimit="10"/>
<path d="M267.422 436.814C267.647 566.495 26.306 513.419 26.512 632.293" stroke="#D1AE67" stroke-width="0.5" stroke-miterlimit="10"/>
<path d="M278.037 444.243C278.262 573.924 36.9213 520.848 37.1273 639.722" stroke="#D1AE67" stroke-width="0.5" stroke-miterlimit="10"/>
<path d="M288.081 451.273C288.306 580.954 46.9652 527.878 47.1702 646.752" stroke="#D1AE67" stroke-width="0.5" stroke-miterlimit="10"/>
<path d="M298.039 458.243C298.264 587.923 56.9222 534.848 57.1282 653.722" stroke="#D1AE67" stroke-width="0.5" stroke-miterlimit="10"/>
<path d="M308.082 465.273C308.307 594.953 66.9663 541.878 67.1723 660.752" stroke="#D1AE67" stroke-width="0.5" stroke-miterlimit="10"/>
<path d="M318.697 472.702C318.922 602.383 77.5814 549.307 77.7874 668.181" stroke="#D1AE67" stroke-width="0.5" stroke-miterlimit="10"/>
<path d="M328.741 479.732C328.966 609.412 87.6254 556.337 87.8314 675.211" stroke="#D1AE67" stroke-width="0.5" stroke-miterlimit="10"/>
<path d="M338.478 486.546C338.703 616.227 97.3618 563.151 97.5668 682.025" stroke="#D1AE67" stroke-width="0.5" stroke-miterlimit="10"/>
<path d="M348.522 493.576C348.746 623.257 107.405 570.181 107.611 689.055" stroke="#D1AE67" stroke-width="0.5" stroke-miterlimit="10"/>
<path d="M359.137 501.005C359.362 630.686 118.02 577.61 118.226 696.484" stroke="#D1AE67" stroke-width="0.5" stroke-miterlimit="10"/>
<path d="M369.18 508.035C369.405 637.716 128.064 584.64 128.27 703.514" stroke="#D1AE67" stroke-width="0.5" stroke-miterlimit="10"/>
<path d="M381.165 516.424C381.39 646.105 140.049 593.029 140.255 711.903" stroke="#D1AE67" stroke-width="0.5" stroke-miterlimit="10"/>
<path d="M391.209 523.454C391.434 653.134 150.093 600.059 150.298 718.933" stroke="#D1AE67" stroke-width="0.5" stroke-miterlimit="10"/>
<path d="M401.824 530.883C402.049 660.564 160.708 607.488 160.914 726.362" stroke="#D1AE67" stroke-width="0.5" stroke-miterlimit="10"/>
<path d="M411.868 537.913C412.093 667.594 170.752 614.518 170.957 733.392" stroke="#D1AE67" stroke-width="0.5" stroke-miterlimit="10"/>
<path d="M421.604 544.728C421.829 674.408 180.488 621.332 180.694 740.207" stroke="#D1AE67" stroke-width="0.5" stroke-miterlimit="10"/>
<path d="M431.648 551.757C431.873 681.438 190.532 628.362 190.738 747.236" stroke="#D1AE67" stroke-width="0.5" stroke-miterlimit="10"/>
<path d="M442.263 559.187C442.488 688.867 201.147 635.792 201.353 754.666" stroke="#D1AE67" stroke-width="0.5" stroke-miterlimit="10"/>
<path d="M452.307 566.216C452.532 695.897 211.191 642.821 211.396 761.695" stroke="#D1AE67" stroke-width="0.5" stroke-miterlimit="10"/>
<path d="M462.265 573.186C462.49 702.867 221.149 649.791 221.354 768.665" stroke="#D1AE67" stroke-width="0.5" stroke-miterlimit="10"/>
<path d="M472.308 580.216C472.533 709.897 231.192 656.821 231.398 775.695" stroke="#D1AE67" stroke-width="0.5" stroke-miterlimit="10"/>
<path d="M482.924 587.646C483.148 717.327 241.807 664.251 242.013 783.125" stroke="#D1AE67" stroke-width="0.5" stroke-miterlimit="10"/>
<path d="M492.967 594.675C493.192 724.356 251.851 671.28 252.057 790.154" stroke="#D1AE67" stroke-width="0.5" stroke-miterlimit="10"/>
<path d="M939.665 -184.513C939.889 -54.8327 698.548 -107.909 698.754 10.9663" stroke="#D1AE67" stroke-width="0.5" stroke-miterlimit="10"/>
<path d="M949.708 -177.483C949.933 -47.8024 708.592 -100.878 708.798 17.9956" stroke="#D1AE67" stroke-width="0.5" stroke-miterlimit="10"/>
<path d="M960.323 -170.053C960.548 -40.3732 719.207 -93.4482 719.413 25.4258" stroke="#D1AE67" stroke-width="0.5" stroke-miterlimit="10"/>
<path d="M970.367 -163.024C970.592 -33.3429 729.251 -86.4189 729.457 32.4551" stroke="#D1AE67" stroke-width="0.5" stroke-miterlimit="10"/>
<path d="M980.104 -156.209C980.329 -26.5284 738.988 -79.6043 739.193 39.2697" stroke="#D1AE67" stroke-width="0.5" stroke-miterlimit="10"/>
<path d="M990.148 -149.18C990.372 -19.4987 749.031 -72.5747 749.237 46.2993" stroke="#D1AE67" stroke-width="0.5" stroke-miterlimit="10"/>
<path d="M1000.76 -141.75C1000.99 -12.069 759.646 -65.145 759.852 53.729" stroke="#D1AE67" stroke-width="0.5" stroke-miterlimit="10"/>
<path d="M1010.81 -134.72C1011.03 -5.03915 769.69 -58.1152 769.896 60.7589" stroke="#D1AE67" stroke-width="0.5" stroke-miterlimit="10"/>
<path d="M1020.76 -127.75C1020.99 1.93051 779.648 -51.1455 779.854 67.7285" stroke="#D1AE67" stroke-width="0.5" stroke-miterlimit="10"/>
<path d="M1030.81 -120.721C1031.03 8.95935 789.692 -44.1156 789.898 74.7584" stroke="#D1AE67" stroke-width="0.5" stroke-miterlimit="10"/>
<path d="M1041.42 -113.291C1041.65 16.39 800.307 -36.686 800.513 82.188" stroke="#D1AE67" stroke-width="0.5" stroke-miterlimit="10"/>
<path d="M1051.47 -106.261C1051.69 23.4198 810.351 -29.6562 810.556 89.2178" stroke="#D1AE67" stroke-width="0.5" stroke-miterlimit="10"/>
<path d="M1061.2 -99.4471C1061.43 30.2339 820.086 -22.8421 820.292 96.0319" stroke="#D1AE67" stroke-width="0.5" stroke-miterlimit="10"/>
<path d="M1071.25 -92.4174C1071.47 37.2636 830.13 -15.8124 830.336 103.062" stroke="#D1AE67" stroke-width="0.5" stroke-miterlimit="10"/>
<path d="M1081.86 -84.9872C1082.09 44.6927 840.746 -8.38224 840.952 110.492" stroke="#D1AE67" stroke-width="0.5" stroke-miterlimit="10"/>
<path d="M698.767 10.9698C698.992 140.651 457.651 87.5749 457.857 206.449" stroke="#D1AE67" stroke-width="0.5" stroke-miterlimit="10"/>
<path d="M708.811 17.9995C709.036 147.681 467.695 94.6045 467.901 213.479" stroke="#D1AE67" stroke-width="0.5" stroke-miterlimit="10"/>
<path d="M719.426 25.4292C719.651 155.11 478.31 102.034 478.516 220.908" stroke="#D1AE67" stroke-width="0.5" stroke-miterlimit="10"/>
<path d="M729.47 32.459C729.695 162.14 488.354 109.064 488.56 227.938" stroke="#D1AE67" stroke-width="0.5" stroke-miterlimit="10"/>
<path d="M739.206 39.2736C739.43 168.955 498.089 115.879 498.295 234.753" stroke="#D1AE67" stroke-width="0.5" stroke-miterlimit="10"/>
<path d="M749.249 46.3033C749.474 175.983 508.133 122.908 508.339 241.782" stroke="#D1AE67" stroke-width="0.5" stroke-miterlimit="10"/>
<path d="M759.864 53.7329C760.089 183.414 518.748 130.338 518.954 249.212" stroke="#D1AE67" stroke-width="0.5" stroke-miterlimit="10"/>
<path d="M769.908 60.7628C770.133 190.444 528.792 137.368 528.998 256.242" stroke="#D1AE67" stroke-width="0.5" stroke-miterlimit="10"/>
<path d="M779.866 67.7325C780.091 197.413 538.75 144.338 538.956 263.212" stroke="#D1AE67" stroke-width="0.5" stroke-miterlimit="10"/>
<path d="M789.91 74.7618C790.135 204.443 548.794 151.367 548.999 270.241" stroke="#D1AE67" stroke-width="0.5" stroke-miterlimit="10"/>
<path d="M800.526 82.192C800.751 211.872 559.41 158.797 559.615 277.671" stroke="#D1AE67" stroke-width="0.5" stroke-miterlimit="10"/>
<path d="M810.57 89.2217C810.794 218.902 569.453 165.826 569.659 284.701" stroke="#D1AE67" stroke-width="0.5" stroke-miterlimit="10"/>
<path d="M820.305 96.0357C820.53 225.717 579.189 172.641 579.395 291.515" stroke="#D1AE67" stroke-width="0.5" stroke-miterlimit="10"/>
<path d="M830.349 103.066C830.574 232.747 589.233 179.671 589.438 298.545" stroke="#D1AE67" stroke-width="0.5" stroke-miterlimit="10"/>
<path d="M840.964 110.495C841.189 240.176 599.848 187.1 600.054 305.974" stroke="#D1AE67" stroke-width="0.5" stroke-miterlimit="10"/>
<path d="M851.008 117.525C851.233 247.206 609.892 194.13 610.097 313.004" stroke="#D1AE67" stroke-width="0.5" stroke-miterlimit="10"/>
<path d="M862.992 125.914C863.217 255.594 621.876 202.519 622.082 321.393" stroke="#D1AE67" stroke-width="0.5" stroke-miterlimit="10"/>
<path d="M873.036 132.943C873.261 262.623 631.92 209.548 632.126 328.422" stroke="#D1AE67" stroke-width="0.5" stroke-miterlimit="10"/>
<path d="M883.652 140.373C883.877 270.054 642.536 216.978 642.742 335.852" stroke="#D1AE67" stroke-width="0.5" stroke-miterlimit="10"/>
<path d="M893.695 147.403C893.92 277.083 652.579 224.008 652.785 342.882" stroke="#D1AE67" stroke-width="0.5" stroke-miterlimit="10"/>
<path d="M903.432 154.217C903.657 283.898 662.315 230.822 662.521 349.696" stroke="#D1AE67" stroke-width="0.5" stroke-miterlimit="10"/>
<path d="M913.475 161.247C913.7 290.928 672.359 237.852 672.565 356.726" stroke="#D1AE67" stroke-width="0.5" stroke-miterlimit="10"/>
<path d="M924.091 168.676C924.315 298.357 682.974 245.281 683.18 364.155" stroke="#D1AE67" stroke-width="0.5" stroke-miterlimit="10"/>
<path d="M934.134 175.706C934.359 305.387 693.018 252.311 693.224 371.185" stroke="#D1AE67" stroke-width="0.5" stroke-miterlimit="10"/>
<path d="M944.092 182.676C944.317 312.357 702.976 259.281 703.182 378.155" stroke="#D1AE67" stroke-width="0.5" stroke-miterlimit="10"/>
<path d="M954.136 189.706C954.361 319.387 713.02 266.311 713.225 385.185" stroke="#D1AE67" stroke-width="0.5" stroke-miterlimit="10"/>
<path d="M964.751 197.135C964.976 326.816 723.635 273.74 723.841 392.614" stroke="#D1AE67" stroke-width="0.5" stroke-miterlimit="10"/>
<path d="M974.795 204.165C975.02 333.846 733.679 280.77 733.884 399.644" stroke="#D1AE67" stroke-width="0.5" stroke-miterlimit="10"/>
<path d="M984.53 210.979C984.755 340.659 743.414 287.584 743.62 406.458" stroke="#D1AE67" stroke-width="0.5" stroke-miterlimit="10"/>
<path d="M994.574 218.009C994.799 347.689 753.458 294.613 753.664 413.488" stroke="#D1AE67" stroke-width="0.5" stroke-miterlimit="10"/>
<path d="M1005.19 225.439C1005.41 355.119 764.074 302.044 764.28 420.918" stroke="#D1AE67" stroke-width="0.5" stroke-miterlimit="10"/>
<path d="M1015.23 232.469C1015.46 362.149 774.118 309.074 774.323 427.948" stroke="#D1AE67" stroke-width="0.5" stroke-miterlimit="10"/>
<path d="M1026.21 240.151C1026.44 369.832 785.094 316.756 785.299 435.63" stroke="#D1AE67" stroke-width="0.5" stroke-miterlimit="10"/>
<path d="M1036.25 247.181C1036.48 376.862 795.137 323.786 795.343 442.66" stroke="#D1AE67" stroke-width="0.5" stroke-miterlimit="10"/>
<path d="M1046.87 254.611C1047.09 384.291 805.752 331.215 805.958 450.09" stroke="#D1AE67" stroke-width="0.5" stroke-miterlimit="10"/>
<path d="M1056.91 261.64C1057.14 391.321 815.796 338.245 816.002 457.119" stroke="#D1AE67" stroke-width="0.5" stroke-miterlimit="10"/>
<path d="M1066.65 268.455C1066.87 398.136 825.533 345.06 825.738 463.934" stroke="#D1AE67" stroke-width="0.5" stroke-miterlimit="10"/>
<path d="M457.865 206.052C458.089 335.733 216.748 282.657 216.954 401.531" stroke="#D1AE67" stroke-width="0.5" stroke-miterlimit="10"/>
<path d="M467.908 213.082C468.133 342.763 226.792 289.687 226.998 408.561" stroke="#D1AE67" stroke-width="0.5" stroke-miterlimit="10"/>
<path d="M478.524 220.511C478.749 350.192 237.408 297.116 237.614 415.99" stroke="#D1AE67" stroke-width="0.5" stroke-miterlimit="10"/>
<path d="M488.568 227.541C488.793 357.222 247.452 304.146 247.658 423.02" stroke="#D1AE67" stroke-width="0.5" stroke-miterlimit="10"/>
<path d="M498.304 234.356C498.529 364.036 257.188 310.961 257.393 429.835" stroke="#D1AE67" stroke-width="0.5" stroke-miterlimit="10"/>
<path d="M508.347 241.385C508.572 371.065 267.231 317.99 267.437 436.864" stroke="#D1AE67" stroke-width="0.5" stroke-miterlimit="10"/>
<path d="M518.963 248.815C519.187 378.496 277.846 325.42 278.052 444.294" stroke="#D1AE67" stroke-width="0.5" stroke-miterlimit="10"/>
<path d="M529.006 255.845C529.231 385.525 287.89 332.45 288.096 451.324" stroke="#D1AE67" stroke-width="0.5" stroke-miterlimit="10"/>
<path d="M538.964 262.814C539.189 392.495 297.848 339.419 298.054 458.293" stroke="#D1AE67" stroke-width="0.5" stroke-miterlimit="10"/>
<path d="M549.008 269.844C549.233 399.525 307.892 346.449 308.098 465.323" stroke="#D1AE67" stroke-width="0.5" stroke-miterlimit="10"/>
<path d="M559.623 277.274C559.848 406.954 318.507 353.879 318.713 472.753" stroke="#D1AE67" stroke-width="0.5" stroke-miterlimit="10"/>
<path d="M569.667 284.303C569.892 413.984 328.551 360.908 328.756 479.782" stroke="#D1AE67" stroke-width="0.5" stroke-miterlimit="10"/>
<path d="M579.403 291.118C579.628 420.799 338.287 367.723 338.493 486.597" stroke="#D1AE67" stroke-width="0.5" stroke-miterlimit="10"/>
<path d="M589.446 298.148C589.671 427.829 348.33 374.753 348.536 493.627" stroke="#D1AE67" stroke-width="0.5" stroke-miterlimit="10"/>
<path d="M600.062 305.577C600.287 435.258 358.946 382.182 359.152 501.056" stroke="#D1AE67" stroke-width="0.5" stroke-miterlimit="10"/>
<path d="M610.106 312.607C610.331 442.288 368.99 389.212 369.196 508.086" stroke="#D1AE67" stroke-width="0.5" stroke-miterlimit="10"/>
<path d="M622.091 320.996C622.316 450.676 380.975 397.601 381.18 516.475" stroke="#D1AE67" stroke-width="0.5" stroke-miterlimit="10"/>
<path d="M632.134 328.025C632.359 457.705 391.018 404.629 391.224 523.504" stroke="#D1AE67" stroke-width="0.5" stroke-miterlimit="10"/>
<path d="M642.75 335.455C642.974 465.135 401.633 412.06 401.839 530.934" stroke="#D1AE67" stroke-width="0.5" stroke-miterlimit="10"/>
<path d="M652.793 342.485C653.018 472.165 411.677 419.09 411.883 537.964" stroke="#D1AE67" stroke-width="0.5" stroke-miterlimit="10"/>
<path d="M662.529 349.299C662.754 478.98 421.413 425.904 421.618 544.778" stroke="#D1AE67" stroke-width="0.5" stroke-miterlimit="10"/>
<path d="M672.573 356.329C672.797 486.01 431.456 432.934 431.662 551.808" stroke="#D1AE67" stroke-width="0.5" stroke-miterlimit="10"/>
<path d="M683.189 363.758C683.414 493.439 442.073 440.363 442.278 559.237" stroke="#D1AE67" stroke-width="0.5" stroke-miterlimit="10"/>
<path d="M693.232 370.788C693.457 500.469 452.116 447.393 452.322 566.267" stroke="#D1AE67" stroke-width="0.5" stroke-miterlimit="10"/>
<path d="M703.19 377.758C703.415 507.439 462.074 454.363 462.28 573.237" stroke="#D1AE67" stroke-width="0.5" stroke-miterlimit="10"/>
<path d="M713.234 384.788C713.459 514.469 472.118 461.393 472.324 580.267" stroke="#D1AE67" stroke-width="0.5" stroke-miterlimit="10"/>
<path d="M723.849 392.217C724.074 521.898 482.733 468.822 482.939 587.696" stroke="#D1AE67" stroke-width="0.5" stroke-miterlimit="10"/>
<path d="M733.893 399.247C734.118 528.928 492.777 475.852 492.982 594.726" stroke="#D1AE67" stroke-width="0.5" stroke-miterlimit="10"/>
<path d="M743.628 406.062C743.853 535.742 502.512 482.667 502.718 601.541" stroke="#D1AE67" stroke-width="0.5" stroke-miterlimit="10"/>
<path d="M753.672 413.091C753.897 542.772 512.556 489.696 512.762 608.57" stroke="#D1AE67" stroke-width="0.5" stroke-miterlimit="10"/>
<path d="M764.287 420.521C764.512 550.201 523.171 497.126 523.377 616" stroke="#D1AE67" stroke-width="0.5" stroke-miterlimit="10"/>
<path d="M774.331 427.551C774.556 557.231 533.215 504.156 533.421 623.03" stroke="#D1AE67" stroke-width="0.5" stroke-miterlimit="10"/>
<path d="M785.308 435.233C785.533 564.914 544.192 511.838 544.397 630.712" stroke="#D1AE67" stroke-width="0.5" stroke-miterlimit="10"/>
<path d="M795.352 442.263C795.577 571.944 554.236 518.868 554.441 637.742" stroke="#D1AE67" stroke-width="0.5" stroke-miterlimit="10"/>
<path d="M805.967 449.692C806.192 579.373 564.851 526.297 565.056 645.171" stroke="#D1AE67" stroke-width="0.5" stroke-miterlimit="10"/>
<path d="M816.011 456.722C816.235 586.403 574.894 533.327 575.1 652.201" stroke="#D1AE67" stroke-width="0.5" stroke-miterlimit="10"/>
<path d="M825.746 463.537C825.971 593.218 584.63 540.142 584.836 659.016" stroke="#D1AE67" stroke-width="0.5" stroke-miterlimit="10"/>
<path d="M1077.22 276.305C1077.44 405.986 836.103 352.91 836.309 471.784" stroke="#D1AE67" stroke-width="0.5" stroke-miterlimit="10"/>
<path d="M836.317 471.387C836.542 601.067 595.201 547.992 595.407 666.866" stroke="#D1AE67" stroke-width="0.5" stroke-miterlimit="10"/>
<path d="M846.932 478.817C847.157 608.498 605.816 555.422 606.022 674.296" stroke="#D1AE67" stroke-width="0.5" stroke-miterlimit="10"/>
<path d="M856.976 485.847C857.201 615.528 615.86 562.452 616.066 681.326" stroke="#D1AE67" stroke-width="0.5" stroke-miterlimit="10"/>
<path d="M866.712 492.661C866.936 622.342 625.595 569.266 625.801 688.14" stroke="#D1AE67" stroke-width="0.5" stroke-miterlimit="10"/>
<path d="M876.755 499.691C876.98 629.372 635.639 576.296 635.845 695.17" stroke="#D1AE67" stroke-width="0.5" stroke-miterlimit="10"/>
<path d="M887.37 507.121C887.595 636.801 646.254 583.726 646.46 702.6" stroke="#D1AE67" stroke-width="0.5" stroke-miterlimit="10"/>
<path d="M897.414 514.15C897.639 643.831 656.298 590.755 656.504 709.629" stroke="#D1AE67" stroke-width="0.5" stroke-miterlimit="10"/>
<path d="M907.372 521.12C907.597 650.801 666.256 597.725 666.462 716.599" stroke="#D1AE67" stroke-width="0.5" stroke-miterlimit="10"/>
<path d="M917.416 528.149C917.641 657.83 676.3 604.754 676.505 723.628" stroke="#D1AE67" stroke-width="0.5" stroke-miterlimit="10"/>
<path d="M928.031 535.579C928.256 665.26 686.915 612.184 687.12 731.058" stroke="#D1AE67" stroke-width="0.5" stroke-miterlimit="10"/>
<path d="M938.075 542.609C938.3 672.29 696.958 619.214 697.164 738.088" stroke="#D1AE67" stroke-width="0.5" stroke-miterlimit="10"/>
<path d="M947.811 549.423C948.036 679.104 706.695 626.028 706.901 744.902" stroke="#D1AE67" stroke-width="0.5" stroke-miterlimit="10"/>
<path d="M957.855 556.453C958.08 686.133 716.739 633.058 716.945 751.932" stroke="#D1AE67" stroke-width="0.5" stroke-miterlimit="10"/>
<path d="M968.47 563.883C968.695 693.564 727.354 640.488 727.56 759.362" stroke="#D1AE67" stroke-width="0.5" stroke-miterlimit="10"/>
<path d="M978.514 570.913C978.739 700.593 737.398 647.518 737.603 766.392" stroke="#D1AE67" stroke-width="0.5" stroke-miterlimit="10"/>
<path d="M990.499 579.301C990.723 708.982 749.382 655.906 749.588 774.78" stroke="#D1AE67" stroke-width="0.5" stroke-miterlimit="10"/>
<path d="M1000.54 586.331C1000.77 716.012 759.426 662.936 759.632 781.81" stroke="#D1AE67" stroke-width="0.5" stroke-miterlimit="10"/>
<path d="M1011.16 593.76C1011.38 723.441 770.041 670.365 770.247 789.239" stroke="#D1AE67" stroke-width="0.5" stroke-miterlimit="10"/>
<path d="M843.993 595.278H-840.939V0.00201416H843.993V595.278Z" stroke="#D1AE67" stroke-miterlimit="10"/>
</g>
<defs>
<clipPath id="clip0_1_10">
<rect width="841.89" height="595.28" fill="white"/>
</clipPath>
</defs>
</svg>
