<svg width="842" height="221" viewBox="0 0 842 221" fill="none" xmlns="http://www.w3.org/2000/svg">
<g clip-path="url(#clip0_1_10)">
<rect width="842" height="221" fill="#043C74"/>
<path d="M388.126 50.609C388.366 198.229 130.202 137.811 130.422 273.13" stroke="white" stroke-width="0.75" stroke-miterlimit="10"/>
<path d="M398.87 58.6114C399.11 206.231 140.946 145.813 141.166 281.132" stroke="white" stroke-width="0.75" stroke-miterlimit="10"/>
<path d="M410.226 67.0686C410.465 214.688 152.301 154.27 152.522 289.589" stroke="white" stroke-width="0.75" stroke-miterlimit="10"/>
<path d="M420.969 75.0711C421.209 222.691 163.046 162.273 163.266 297.592" stroke="white" stroke-width="0.75" stroke-miterlimit="10"/>
<path d="M431.384 82.8278C431.624 230.448 173.46 170.03 173.68 305.348" stroke="white" stroke-width="0.75" stroke-miterlimit="10"/>
<path d="M442.127 90.8303C442.367 238.45 184.203 178.032 184.424 313.351" stroke="white" stroke-width="0.75" stroke-miterlimit="10"/>
<path d="M453.482 99.2876C453.722 246.907 195.558 186.491 195.779 321.808" stroke="white" stroke-width="0.75" stroke-miterlimit="10"/>
<path d="M464.227 107.29C464.467 254.91 206.302 194.492 206.523 329.811" stroke="white" stroke-width="0.75" stroke-miterlimit="10"/>
<path d="M474.879 115.224C475.119 262.844 216.955 202.426 217.175 337.744" stroke="white" stroke-width="0.75" stroke-miterlimit="10"/>
<path d="M485.622 123.226C485.862 270.846 227.698 210.428 227.919 345.746" stroke="white" stroke-width="0.75" stroke-miterlimit="10"/>
<path d="M496.977 131.683C497.217 279.303 239.053 218.885 239.273 354.204" stroke="white" stroke-width="0.75" stroke-miterlimit="10"/>
<path d="M507.722 139.685C507.961 287.305 249.797 226.887 250.018 362.206" stroke="white" stroke-width="0.75" stroke-miterlimit="10"/>
<path d="M518.136 147.443C518.376 295.062 260.212 234.645 260.433 369.963" stroke="white" stroke-width="0.75" stroke-miterlimit="10"/>
<path d="M528.88 155.445C529.12 303.064 270.956 242.647 271.176 377.965" stroke="white" stroke-width="0.75" stroke-miterlimit="10"/>
<path d="M540.235 163.902C540.475 311.522 282.311 251.104 282.531 386.423" stroke="white" stroke-width="0.75" stroke-miterlimit="10"/>
<path d="M550.978 171.904C551.218 319.524 293.055 259.106 293.275 394.425" stroke="white" stroke-width="0.75" stroke-miterlimit="10"/>
<path d="M563.799 181.453C564.039 329.073 305.876 268.655 306.096 403.974" stroke="white" stroke-width="0.75" stroke-miterlimit="10"/>
<path d="M574.543 189.455C574.783 337.075 316.619 276.658 316.839 411.976" stroke="white" stroke-width="0.75" stroke-miterlimit="10"/>
<path d="M585.898 197.913C586.138 345.533 327.974 285.115 328.194 420.433" stroke="white" stroke-width="0.75" stroke-miterlimit="10"/>
<path d="M596.643 205.915C596.883 353.535 338.718 293.117 338.939 428.436" stroke="white" stroke-width="0.75" stroke-miterlimit="10"/>
<path d="M607.057 213.672C607.297 361.292 349.132 300.874 349.353 436.193" stroke="white" stroke-width="0.75" stroke-miterlimit="10"/>
<path d="M237.391 -2.03681C237.616 135.982 -3.75692 79.4935 -3.55089 206.01" stroke="white" stroke-width="0.5" stroke-miterlimit="10"/>
<path d="M247.436 5.44499C247.661 143.464 6.28827 86.9753 6.49329 213.492" stroke="white" stroke-width="0.5" stroke-miterlimit="10"/>
<path d="M258.052 13.3524C258.278 151.371 16.905 94.8827 17.11 221.4" stroke="white" stroke-width="0.5" stroke-miterlimit="10"/>
<path d="M268.098 20.8341C268.323 158.853 26.9491 102.364 27.1552 228.881" stroke="white" stroke-width="0.5" stroke-miterlimit="10"/>
<path d="M277.834 28.0866C278.059 166.105 36.6867 109.617 36.8928 236.134" stroke="white" stroke-width="0.5" stroke-miterlimit="10"/>
<path d="M287.88 35.5685C288.105 173.586 46.732 117.099 46.9381 243.616" stroke="white" stroke-width="0.5" stroke-miterlimit="10"/>
<path d="M298.496 43.4759C298.721 181.495 57.3486 125.006 57.5547 251.523" stroke="white" stroke-width="0.5" stroke-miterlimit="10"/>
<path d="M308.541 50.9576C308.766 188.976 67.394 132.488 67.599 259.005" stroke="white" stroke-width="0.5" stroke-miterlimit="10"/>
<path d="M318.501 58.3754C318.726 196.393 77.3522 139.906 77.5583 266.423" stroke="white" stroke-width="0.5" stroke-miterlimit="10"/>
<path d="M328.546 65.8567C328.771 203.876 87.3975 147.387 87.6035 273.904" stroke="white" stroke-width="0.5" stroke-miterlimit="10"/>
<path d="M339.163 73.7647C339.388 211.782 98.0141 155.295 98.2202 281.812" stroke="white" stroke-width="0.5" stroke-miterlimit="10"/>
<path d="M349.207 81.2464C349.432 219.264 108.059 162.777 108.265 289.294" stroke="white" stroke-width="0.5" stroke-miterlimit="10"/>
<path d="M358.945 88.4986C359.17 226.517 117.797 170.029 118.002 296.546" stroke="white" stroke-width="0.5" stroke-miterlimit="10"/>
<path d="M368.99 95.9801C369.215 233.999 127.841 177.51 128.047 304.027" stroke="white" stroke-width="0.5" stroke-miterlimit="10"/>
<path d="M379.606 103.888C379.831 241.906 138.458 185.418 138.664 311.935" stroke="white" stroke-width="0.5" stroke-miterlimit="10"/>
<path d="M389.652 111.369C389.877 249.388 148.503 192.9 148.709 319.417" stroke="white" stroke-width="0.5" stroke-miterlimit="10"/>
<path d="M400.629 119.546C400.854 257.565 159.481 201.076 159.687 327.593" stroke="white" stroke-width="0.5" stroke-miterlimit="10"/>
<path d="M410.674 127.028C410.899 265.046 169.526 208.558 169.732 335.075" stroke="white" stroke-width="0.5" stroke-miterlimit="10"/>
<path d="M421.29 134.935C421.516 272.954 180.143 216.465 180.349 342.982" stroke="white" stroke-width="0.5" stroke-miterlimit="10"/>
<path d="M431.336 142.417C431.561 280.436 190.188 223.947 190.393 350.464" stroke="white" stroke-width="0.5" stroke-miterlimit="10"/>
<path d="M441.073 149.669C441.298 287.687 199.925 231.2 200.131 357.717" stroke="white" stroke-width="0.5" stroke-miterlimit="10"/>
<path d="M488.393 -202.548C488.617 -64.5294 247.245 -121.018 247.451 5.49902" stroke="white" stroke-width="0.5" stroke-miterlimit="10"/>
<path d="M499.01 -194.641C499.235 -56.6221 257.861 -113.111 258.067 13.4064" stroke="white" stroke-width="0.5" stroke-miterlimit="10"/>
<path d="M509.054 -187.159C509.279 -49.1402 267.906 -105.629 268.112 20.8882" stroke="white" stroke-width="0.5" stroke-miterlimit="10"/>
<path d="M518.792 -179.906C519.017 -41.8887 277.644 -98.3761 277.85 28.1409" stroke="white" stroke-width="0.5" stroke-miterlimit="10"/>
<path d="M528.837 -172.425C529.062 -34.4065 287.689 -90.895 287.894 35.622" stroke="white" stroke-width="0.5" stroke-miterlimit="10"/>
<path d="M539.453 -164.517C539.678 -26.4996 298.306 -82.9871 298.511 43.5299" stroke="white" stroke-width="0.5" stroke-miterlimit="10"/>
<path d="M549.499 -157.036C549.723 -19.0179 308.35 -75.5053 308.556 51.0117" stroke="white" stroke-width="0.5" stroke-miterlimit="10"/>
<path d="M559.457 -149.618C559.682 -11.5995 318.31 -68.088 318.516 58.429" stroke="white" stroke-width="0.5" stroke-miterlimit="10"/>
<path d="M569.502 -142.137C569.727 -4.1177 328.355 -60.6062 328.561 65.9108" stroke="white" stroke-width="0.5" stroke-miterlimit="10"/>
<path d="M580.119 -134.229C580.344 3.78966 338.971 -52.6988 339.177 73.8181" stroke="white" stroke-width="0.5" stroke-miterlimit="10"/>
<path d="M590.164 -126.747C590.389 11.2715 349.017 -45.217 349.223 81.2999" stroke="white" stroke-width="0.5" stroke-miterlimit="10"/>
<path d="M599.902 -119.495C600.126 18.524 358.753 -37.9645 358.959 88.5525" stroke="white" stroke-width="0.5" stroke-miterlimit="10"/>
<path d="M609.946 -112.013C610.171 26.0058 368.798 -30.4827 369.005 96.0342" stroke="white" stroke-width="0.5" stroke-miterlimit="10"/>
<path d="M620.563 -104.106C620.788 33.9131 379.415 -22.5754 379.621 103.942" stroke="white" stroke-width="0.5" stroke-miterlimit="10"/>
<path d="M630.608 -96.6239C630.833 41.3949 389.46 -15.0936 389.666 111.423" stroke="white" stroke-width="0.5" stroke-miterlimit="10"/>
<path d="M641.586 -88.4473C641.811 49.5704 400.438 -6.91704 400.644 119.6" stroke="white" stroke-width="0.5" stroke-miterlimit="10"/>
<path d="M651.631 -80.9656C651.856 57.0521 410.484 0.564678 410.689 127.082" stroke="white" stroke-width="0.5" stroke-miterlimit="10"/>
<path d="M662.248 -73.0581C662.473 64.9607 421.1 8.47217 421.305 134.989" stroke="white" stroke-width="0.5" stroke-miterlimit="10"/>
<path d="M672.293 -65.5764C672.518 72.4414 431.146 15.954 431.351 142.471" stroke="white" stroke-width="0.5" stroke-miterlimit="10"/>
<path d="M682.03 -58.3243C682.255 79.6945 440.882 23.206 441.088 149.723" stroke="white" stroke-width="0.5" stroke-miterlimit="10"/>
<path d="M449.017 159.569C449.242 297.588 207.869 241.099 208.074 367.616" stroke="white" stroke-width="0.5" stroke-miterlimit="10"/>
<path d="M459.062 167.05C459.287 305.069 217.914 248.581 218.12 375.098" stroke="white" stroke-width="0.5" stroke-miterlimit="10"/>
<path d="M469.679 174.958C469.904 312.977 228.53 256.488 228.736 383.005" stroke="white" stroke-width="0.5" stroke-miterlimit="10"/>
<path d="M479.724 182.44C479.948 320.458 238.575 263.97 238.781 390.487" stroke="white" stroke-width="0.5" stroke-miterlimit="10"/>
<path d="M489.461 189.692C489.686 327.711 248.313 271.222 248.519 397.739" stroke="white" stroke-width="0.5" stroke-miterlimit="10"/>
<path d="M499.506 197.174C499.731 335.193 258.358 278.704 258.564 405.221" stroke="white" stroke-width="0.5" stroke-miterlimit="10"/>
<path d="M510.122 205.081C510.347 343.1 268.975 286.612 269.181 413.129" stroke="white" stroke-width="0.5" stroke-miterlimit="10"/>
<path d="M520.168 212.563C520.393 350.582 279.02 294.093 279.225 420.61" stroke="white" stroke-width="0.5" stroke-miterlimit="10"/>
<path d="M530.127 219.981C530.352 357.999 288.978 301.511 289.185 428.028" stroke="white" stroke-width="0.5" stroke-miterlimit="10"/>
<path d="M1002.06 -203.055C1002.28 -65.0361 760.91 -121.525 761.116 4.99237" stroke="white" stroke-width="0.5" stroke-miterlimit="10"/>
<path d="M1012.02 -195.637C1012.24 -57.6193 770.87 -114.107 771.076 12.4103" stroke="white" stroke-width="0.5" stroke-miterlimit="10"/>
<path d="M1022.06 -188.156C1022.29 -50.1369 780.915 -106.625 781.12 19.8916" stroke="white" stroke-width="0.5" stroke-miterlimit="10"/>
<path d="M1032.68 -180.248C1032.9 -42.2302 791.531 -98.7177 791.737 27.7993" stroke="white" stroke-width="0.5" stroke-miterlimit="10"/>
<path d="M1042.72 -172.766C1042.95 -34.7484 801.576 -91.2369 801.782 35.2812" stroke="white" stroke-width="0.5" stroke-miterlimit="10"/>
<path d="M1052.46 -165.514C1052.69 -27.4952 811.313 -83.9837 811.519 42.5333" stroke="white" stroke-width="0.5" stroke-miterlimit="10"/>
<path d="M1062.51 -158.032C1062.73 -20.0135 821.359 -76.502 821.564 50.015" stroke="white" stroke-width="0.5" stroke-miterlimit="10"/>
<path d="M1073.12 -150.125C1073.35 -12.1062 831.975 -68.5947 832.181 57.9223" stroke="white" stroke-width="0.5" stroke-miterlimit="10"/>
<path d="M1083.17 -142.643C1083.39 -4.62442 842.02 -61.1129 842.225 65.4041" stroke="white" stroke-width="0.5" stroke-miterlimit="10"/>
<path d="M689.974 -48.4245C690.198 89.5943 448.826 33.1058 449.032 159.623" stroke="white" stroke-width="0.5" stroke-miterlimit="10"/>
<path d="M700.018 -40.9428C700.243 97.076 458.871 40.5875 459.077 167.104" stroke="white" stroke-width="0.5" stroke-miterlimit="10"/>
<path d="M710.635 -33.0353C710.86 104.983 469.487 48.495 469.694 175.012" stroke="white" stroke-width="0.5" stroke-miterlimit="10"/>
<path d="M720.68 -25.5536C720.905 112.465 479.533 55.9767 479.739 182.494" stroke="white" stroke-width="0.5" stroke-miterlimit="10"/>
<path d="M730.418 -18.3009C730.643 119.717 489.27 63.2294 489.475 189.746" stroke="white" stroke-width="0.5" stroke-miterlimit="10"/>
<path d="M740.462 -10.8192C740.687 127.198 499.315 70.7111 499.521 197.228" stroke="white" stroke-width="0.5" stroke-miterlimit="10"/>
<path d="M751.08 -2.91188C751.304 135.107 509.931 78.6184 510.137 205.135" stroke="white" stroke-width="0.5" stroke-miterlimit="10"/>
<path d="M761.124 4.56986C761.349 142.588 519.976 86.1002 520.183 212.617" stroke="white" stroke-width="0.5" stroke-miterlimit="10"/>
<path d="M771.083 11.9872C771.308 150.006 529.936 93.5175 530.142 220.034" stroke="white" stroke-width="0.5" stroke-miterlimit="10"/>
<path d="M781.128 19.4689C781.353 157.488 539.981 100.999 540.187 227.516" stroke="white" stroke-width="0.5" stroke-miterlimit="10"/>
<path d="M791.745 27.3769C791.97 165.395 550.598 108.907 550.804 235.424" stroke="white" stroke-width="0.5" stroke-miterlimit="10"/>
<path d="M801.79 34.8582C802.015 172.877 560.643 116.388 560.848 242.905" stroke="white" stroke-width="0.5" stroke-miterlimit="10"/>
<path d="M811.527 42.1107C811.752 180.129 570.38 123.641 570.586 250.158" stroke="white" stroke-width="0.5" stroke-miterlimit="10"/>
<path d="M821.572 49.5924C821.797 187.611 580.425 131.123 580.631 257.64" stroke="white" stroke-width="0.5" stroke-miterlimit="10"/>
<path d="M832.189 57.4998C832.414 195.519 591.041 139.03 591.247 265.547" stroke="white" stroke-width="0.5" stroke-miterlimit="10"/>
<path d="M842.234 64.9816C842.459 203 601.087 146.512 601.293 273.029" stroke="white" stroke-width="0.5" stroke-miterlimit="10"/>
<path d="M854.221 73.9096C854.446 211.927 613.074 155.44 613.279 281.957" stroke="white" stroke-width="0.5" stroke-miterlimit="10"/>
<path d="M864.265 81.3913C864.49 219.409 623.118 162.921 623.324 289.439" stroke="white" stroke-width="0.5" stroke-miterlimit="10"/>
<path d="M874.883 89.2987C875.107 227.316 633.734 170.829 633.94 297.346" stroke="white" stroke-width="0.5" stroke-miterlimit="10"/>
<path d="M884.927 96.7806C885.152 234.798 643.78 178.311 643.986 304.828" stroke="white" stroke-width="0.5" stroke-miterlimit="10"/>
<path d="M894.665 104.033C894.89 242.051 653.517 185.563 653.722 312.08" stroke="white" stroke-width="0.5" stroke-miterlimit="10"/>
<path d="M904.71 111.514C904.934 249.533 663.562 193.045 663.768 319.562" stroke="white" stroke-width="0.5" stroke-miterlimit="10"/>
<path d="M915.327 119.422C915.552 257.441 674.179 200.952 674.384 327.469" stroke="white" stroke-width="0.5" stroke-miterlimit="10"/>
<path d="M925.371 126.903C925.596 264.922 684.224 208.434 684.43 334.951" stroke="white" stroke-width="0.5" stroke-miterlimit="10"/>
<path d="M935.33 134.321C935.555 272.34 694.183 215.851 694.389 342.368" stroke="white" stroke-width="0.5" stroke-miterlimit="10"/>
<path d="M945.376 141.803C945.601 279.822 704.228 223.333 704.434 349.85" stroke="white" stroke-width="0.5" stroke-miterlimit="10"/>
<path d="M955.992 149.71C956.217 287.729 714.845 231.241 715.051 357.758" stroke="white" stroke-width="0.5" stroke-miterlimit="10"/>
<path d="M966.037 157.192C966.262 295.211 724.89 238.723 725.095 365.24" stroke="white" stroke-width="0.5" stroke-miterlimit="10"/>
<path d="M975.774 164.445C975.999 302.463 734.627 245.975 734.833 372.492" stroke="white" stroke-width="0.5" stroke-miterlimit="10"/>
<path d="M985.819 171.926C986.044 309.945 744.672 253.456 744.878 379.973" stroke="white" stroke-width="0.5" stroke-miterlimit="10"/>
<path d="M996.436 179.834C996.661 317.852 755.288 261.364 755.494 387.881" stroke="white" stroke-width="0.5" stroke-miterlimit="10"/>
<path d="M1006.48 187.316C1006.71 325.333 765.334 268.846 765.54 395.363" stroke="white" stroke-width="0.5" stroke-miterlimit="10"/>
<path d="M1017.46 195.492C1017.68 333.511 776.312 277.022 776.517 403.539" stroke="white" stroke-width="0.5" stroke-miterlimit="10"/>
<path d="M1027.5 202.974C1027.73 340.992 786.357 284.504 786.562 411.021" stroke="white" stroke-width="0.5" stroke-miterlimit="10"/>
<path d="M1038.12 210.881C1038.35 348.9 796.974 292.411 797.179 418.928" stroke="white" stroke-width="0.5" stroke-miterlimit="10"/>
<path d="M1048.17 218.363C1048.39 356.381 807.018 299.893 807.224 426.41" stroke="white" stroke-width="0.5" stroke-miterlimit="10"/>
<path d="M1076.15 365.827H-609V-267.722H1076.15V365.827Z" stroke="white" stroke-miterlimit="10"/>
</g>
<defs>
<clipPath id="clip0_1_10">
<rect width="842" height="221" fill="white"/>
</clipPath>
</defs>
</svg>
