<svg width="374" height="128" viewBox="0 0 374 128" fill="none" xmlns="http://www.w3.org/2000/svg">
<path fill-rule="evenodd" clip-rule="evenodd" d="M300.516 19.2807C296.971 19.5397 290.618 19.8237 284.653 19.9907C281.068 20.0907 280.488 20.1457 280.147 20.4227L279.756 20.7387L279.706 56.6647C279.671 81.8507 279.713 93.0387 279.849 94.0917C280.195 96.7877 281.369 98.5497 283.529 99.6127L284.696 100.188H292.827H300.958L302.014 99.6697C304.167 98.6137 305.491 96.7237 305.812 94.2487C306.003 92.7847 306.031 24.0897 305.843 21.2417C305.678 18.7457 306.035 18.8777 300.516 19.2807ZM46.541 20.2207C44.566 21.1317 44.509 21.3957 44.509 29.5637V36.4257L44.968 37.3457C45.308 38.0297 45.638 38.3907 46.248 38.7497L47.071 39.2337L53.608 39.2917C64.441 39.3877 64.007 39.8217 63.912 28.9857C63.828 19.3347 64.423 19.8847 54.067 19.8907C47.815 19.8947 47.188 19.9217 46.541 20.2207ZM1.22697 20.2407C-0.14403 20.5707 -0.0290302 17.7787 0.0319698 49.3727L0.0859697 77.5727L0.47497 79.2647C2.95397 90.0497 10.372 97.6457 20.678 99.9537L22.512 100.364H54.933H87.353L88.855 99.8697C90.768 99.2397 92.035 98.3627 93.329 96.7707C94.676 95.1137 95.042 95.0147 95.965 96.0527C98.434 98.8267 99.722 99.6807 102.194 100.18C104.402 100.625 141.449 100.502 142.958 100.044C145.252 99.3477 146.73 98.4097 147.954 96.8717C149.443 94.9997 149.551 95.0057 151.557 97.0707C153.175 98.7367 154.301 99.4237 156.435 100.048C157.789 100.444 195.988 100.642 198.837 100.268C207.441 99.1377 214.428 92.6887 216.539 83.9287C216.802 82.8347 216.847 80.8057 216.936 65.9117L217.035 49.1277L217.425 48.3987C217.866 47.5737 218.685 46.8227 219.597 46.4057C220.365 46.0557 235.675 45.8837 238.031 46.1997C241.412 46.6527 244.086 49.0177 244.945 52.3137C245.39 54.0237 245.34 66.9817 244.883 68.4517C244.058 71.1007 242.339 72.7957 239.562 73.6967C238.727 73.9677 237.659 74.0267 231.993 74.1137L225.396 74.2157L224.97 74.7117L224.544 75.2067V87.3127V99.4197L225.068 99.9437L225.593 100.468L239.865 100.412L254.138 100.356L255.825 99.8927C264.638 97.4777 270.665 90.2217 271.547 80.9637C271.91 77.1607 271.684 29.5637 271.298 28.2787C270.093 24.2707 267.097 21.3397 263.237 20.3907C261.539 19.9737 211.024 20.0447 208.948 20.4677C200.13 22.2637 193.54 28.7747 191.386 37.8197C191.13 38.8947 191.078 40.8257 190.983 52.5727L190.874 66.0887L190.397 67.5157C189.27 70.8817 186.683 73.3707 183.43 74.2177C182.614 74.4297 181.008 74.4807 175.057 74.4807C166.317 74.4807 166.422 74.4977 164.725 72.8097C162.803 70.8987 162.985 73.5907 162.883 45.5937C162.835 32.1837 162.726 21.0707 162.642 20.8977C162.282 20.1597 162.193 20.1537 150.427 20.0977C138.079 20.0377 137.491 20.0627 136.773 20.6797L136.293 21.0927L136.205 43.5027L136.117 65.9117L135.633 67.3387C134.52 70.6197 132.244 72.9327 129.114 73.9637C127.816 74.3907 127.793 74.3927 120.039 74.3927H112.265L111.363 73.9157C110.24 73.3237 108.956 71.9187 108.527 70.8137C108.218 70.0177 108.197 68.7337 108.113 45.4657L108.025 20.9567L107.621 20.5547L107.218 20.1517L95.165 20.1997C82.911 20.2477 82.338 20.2797 82.021 20.9187C81.942 21.0797 81.836 31.2697 81.786 43.5617C81.701 64.6297 81.677 65.9677 81.372 66.8837C80.072 70.7787 76.511 73.9357 72.777 74.5017C70.512 74.8457 35.188 74.5937 33.834 74.2247C30.68 73.3647 27.912 70.7187 26.705 67.4097L26.223 66.0887L26.134 43.6097L26.046 21.1317L25.556 20.6417L25.066 20.1517L13.454 20.1227C7.06697 20.1067 1.56497 20.1597 1.22697 20.2407ZM102.813 108.505C102.068 108.831 101.297 109.537 100.898 110.258C100.642 110.721 100.597 111.64 100.55 117.467C100.464 128.185 99.989 127.707 110.635 127.625L117.389 127.573L118.212 127.088C118.666 126.822 119.222 126.305 119.449 125.94L119.862 125.276V117.915V110.554L119.332 109.803C118.277 108.31 118.337 108.32 110.41 108.274C104.464 108.24 103.34 108.274 102.813 108.505ZM126.576 108.561C124.555 109.497 124.477 109.814 124.404 117.293C124.3 128.072 123.826 127.573 134.173 127.573C144.516 127.573 144.049 128.07 143.941 117.176C143.849 107.752 144.375 108.234 134.173 108.234C127.838 108.234 127.226 108.261 126.576 108.561Z" fill="#043C74"/>
<path fill-rule="evenodd" clip-rule="evenodd" d="M371.894 0.235677C371.651 0.407677 370.975 1.00668 370.392 1.56668C366.989 4.83968 360.836 7.69168 350.092 10.9767C348.749 11.3867 347.84 11.7687 347.575 12.0347L347.159 12.4507V53.0617C347.159 81.5417 347.216 93.9867 347.351 94.7217C347.749 96.8967 349.2 98.7837 351.192 99.7177L352.194 100.188H360.233H368.272L369.351 99.6887C370.715 99.0587 372.076 97.6917 372.725 96.3007L373.219 95.2407L373.269 48.4207C373.297 22.6697 373.274 1.34468 373.218 1.03168C373.037 0.0196763 372.586 -0.252323 371.894 0.235677ZM334.791 14.8567C330.021 15.8897 323.948 16.8697 315.025 18.0467C314.548 18.1097 314.091 18.3097 313.831 18.5697L313.409 18.9917L313.456 57.2037L313.502 95.4167L313.903 96.2867C315.586 99.9367 316.818 100.312 326.88 100.241L334.35 100.188L335.381 99.7047C337.32 98.7957 338.536 97.4627 339.166 95.5527C339.488 94.5747 339.505 15.1517 339.183 14.5427C338.946 14.0947 337.998 14.1617 334.791 14.8567Z" fill="#D4AC65"/>
</svg>
